PathFileType  4	(X/Y/Z) C:\Users\HPL 1\Documents/Temp/Sub278498/Files_W_HJCs/
DataRate	CameraRate	NumFrames	NumMarkers	Units	OrigDataRate	OrigDataStartFrame	OrigNumFrames
50.0	50.0	5	42	mm	50.0	172	684
Frame#	Time  	r_knee			r_shank(antsup)			r_ankle			r_calc			r_5meta			r_toe			L_knee			L_shank(ant_sup)			L_ankle			L_calc			L_5meta			L_toe			r_mknee			r_mankle			L_mknee			L_mankle			r_sh2			r_sh3			r_sh4			L_sh2			L_sh3			r_thigh1			r_thigh2			r_thigh3			r_thigh4			r_thigh5			L_thigh1			L_thigh2			L_thigh3			L_thigh4			r.ASIS			r.PSIS			L.ASIS			L.PSIS			C7			R_Shoulder			L_Shoulder			Sternum			R_HJC			L_HJC			R_HJC_reg			L_HJC_reg			
		X1	Y1	Z1	X2	Y2	Z2	X3	Y3	Z3	X4	Y4	Z4	X5	Y5	Z5	X6	Y6	Z6	X7	Y7	Z7	X8	Y8	Z8	X9	Y9	Z9	X10	Y10	Z10	X11	Y11	Z11	X12	Y12	Z12	X13	Y13	Z13	X14	Y14	Z14	X15	Y15	Z15	X16	Y16	Z16	X17	Y17	Z17	X18	Y18	Z18	X19	Y19	Z19	X20	Y20	Z20	X21	Y21	Z21	X22	Y22	Z22	X23	Y23	Z23	X24	Y24	Z24	X25	Y25	Z25	X26	Y26	Z26	X27	Y27	Z27	X28	Y28	Z28	X29	Y29	Z29	X30	Y30	Z30	X31	Y31	Z31	X32	Y32	Z32	X33	Y33	Z33	X34	Y34	Z34	X35	Y35	Z35	X36	Y36	Z36	X37	Y37	Z37	X38	Y38	Z38	X39	Y39	Z39	X40	Y40	Z40	X41	Y41	Z41	X42	Y42	Z42	

172	3.42000	781.67450	570.95984	-255.34210	795.92023	480.50766	-254.19897	711.00275	112.45535	-283.95245	622.59833	71.58845	-333.47391	818.04279	39.29628	-249.51741	862.81665	71.21256	-310.17526	922.96027	629.55225	-601.91669	984.25446	524.12909	-612.32166	991.29944	175.30257	-662.68103	924.98260	108.40562	-625.41339	1125.71252	136.06625	-698.42108	1157.72449	164.86293	-633.33649	783.84509	558.18909	-383.99399	727.71198	119.23522	-379.24902	935.42188	607.12372	-478.80426	1012.46167	171.36813	-569.37866	782.95270	361.42200	-261.55264	720.57172	485.65665	-242.79680	700.64160	371.06235	-246.40831	895.93909	524.20471	-637.71729	916.01660	404.60037	-655.67139	828.28503	898.77594	-227.01788	839.96991	784.25177	-232.01117	795.23016	747.84729	-223.99612	715.82056	882.19269	-213.94476	731.63879	766.49640	-232.63795	897.51666	910.06860	-582.96637	953.26556	783.60522	-591.00360	790.79028	865.85651	-611.34698	848.96161	743.95349	-609.72302	838.58398	1095.82593	-260.05762	646.09637	1119.63916	-344.97327	835.19531	1127.87964	-514.01355	648.13104	1124.52795	-425.35297	708.95050	1617.61377	-393.23709	755.90173	1586.94092	-224.92442	773.42047	1580.41504	-571.89355	846.15771	1542.69373	-386.63406	779.06600	1002.66744	-280.18711	776.71436	1031.06329	-514.82802	770.97908	1024.51806	-302.03909	775.24664	1034.77191	-470.62918
173	3.44000	780.78711	571.04132	-255.36264	795.08875	480.59775	-254.32692	710.98743	112.48416	-284.05771	622.63031	71.55778	-333.54910	818.05365	39.30754	-249.57222	862.81995	71.18338	-310.20898	932.37585	637.76300	-609.65894	996.70734	534.65723	-622.42957	1015.07648	187.40002	-680.49750	950.70081	117.82643	-644.44855	1150.53894	153.11754	-718.46973	1181.83130	181.15094	-652.97516	782.98193	558.36475	-384.03345	727.61298	119.15773	-379.35532	945.80023	613.17365	-487.02182	1036.69617	181.89226	-587.64728	782.37152	361.57529	-261.65372	719.83563	485.67804	-242.90508	700.04590	371.08432	-246.58627	908.49280	532.63080	-647.76678	932.13190	414.01001	-668.40558	826.63306	898.18353	-225.79596	838.21582	783.88464	-231.22681	793.37714	747.46814	-223.59731	714.09033	881.90039	-214.10890	729.98633	766.31720	-232.70636	898.43750	916.55243	-585.39716	957.99298	791.92743	-596.25549	793.59888	870.48724	-614.24371	854.92230	749.67761	-615.13153	837.18750	1095.85254	-258.85895	644.73059	1119.86694	-343.62656	833.26190	1128.94385	-512.93085	646.33398	1125.05298	-424.14850	708.89935	1618.07654	-392.30087	756.06818	1587.24719	-223.88997	773.41846	1580.41150	-570.88550	845.92871	1542.61584	-385.63617	777.69722	1002.75280	-279.47543	774.98983	1032.05666	-514.00083	769.83591	1024.63746	-300.77891	773.19595	1035.50525	-469.51952
174	3.46000	780.07800	571.06311	-255.54616	794.87445	480.78650	-254.63060	710.96985	112.50851	-284.10703	622.64185	71.65318	-333.53561	818.06586	39.33691	-249.60008	862.85022	71.21742	-310.27499	941.97559	647.00995	-617.46423	1009.30865	546.41632	-632.62708	1038.07703	201.06152	-697.72076	976.40088	128.85332	-661.69592	1174.25513	171.47815	-737.84601	1205.44727	199.09543	-671.90674	781.86578	558.60303	-384.24048	727.32123	119.19940	-379.57074	957.03876	620.62170	-495.44727	1061.31067	194.34468	-604.92468	782.23383	361.75296	-261.80164	719.55322	485.74207	-242.97795	699.90625	371.15002	-246.46945	921.04034	542.23474	-657.46130	948.22412	424.76221	-680.68719	825.96564	897.76166	-225.27135	837.23535	783.54309	-230.95749	792.05042	747.11505	-223.39799	712.86951	881.72845	-214.21815	728.73059	766.11151	-233.10970	898.86639	923.71008	-588.27155	962.57263	801.26239	-601.65979	795.77515	875.03528	-617.24121	860.78882	756.25842	-620.68347	835.99451	1095.83215	-258.20273	643.57288	1120.11584	-342.39774	831.11603	1130.33167	-512.15790	644.45044	1125.75793	-422.82568	708.91895	1618.60168	-390.90891	756.76251	1587.63110	-222.65564	773.17548	1580.52063	-569.72644	845.60205	1542.63538	-384.69763	776.58057	1002.79520	-279.23995	773.04719	1033.38578	-513.58999	769.06262	1024.72821	-299.96051	770.90394	1036.56658	-468.71636
175	3.48000	779.88385	571.25183	-255.70529	794.82983	481.01886	-254.93021	711.03223	112.61877	-284.14880	622.65808	71.79726	-333.54059	818.11139	39.36397	-249.64560	862.92114	71.21049	-310.30151	951.67365	657.07703	-625.57709	1022.14014	559.04364	-643.06494	1061.12976	215.51262	-713.86469	1002.62695	140.76079	-678.13977	1197.83765	191.03253	-756.36530	1229.18860	218.57019	-690.42407	781.02051	558.81854	-384.50134	727.56342	119.32824	-379.51575	969.00769	629.46991	-504.07336	1085.92163	208.10509	-621.49762	782.23541	362.00107	-262.08844	719.52563	486.00250	-243.00082	700.01392	371.37659	-246.42366	933.45471	552.12311	-666.59631	964.27319	435.86050	-692.09094	825.27856	897.46082	-225.16557	836.30988	783.44775	-230.93365	791.32916	747.06635	-223.34618	712.07135	881.57648	-214.14902	728.06952	766.05670	-233.15297	899.31177	931.54608	-591.37646	967.16266	811.57123	-607.48773	797.49957	879.56464	-620.32953	866.95319	763.16962	-626.18860	835.01440	1096.04602	-257.84293	642.50995	1120.65540	-341.05365	828.81964	1131.93103	-511.66208	642.48114	1126.45288	-421.46100	708.91284	1619.32874	-389.36209	757.59015	1588.15564	-221.47385	772.41565	1580.90820	-568.49408	845.44354	1542.84607	-383.85587	775.70173	1003.08052	-279.13210	770.92950	1034.85994	-513.30193	768.34852	1025.48983	-298.95400	768.28804	1037.66038	-467.75178
176	3.50000	779.79755	571.44061	-255.75352	794.73669	481.14911	-255.05069	711.13092	112.72366	-284.18890	622.73462	71.92941	-333.58719	818.09515	39.35125	-249.67148	863.00031	71.19871	-310.33444	961.23590	667.55103	-633.72186	1035.22205	572.76349	-654.12756	1084.13025	230.98430	-729.53369	1029.40906	153.88306	-693.45996	1221.37573	211.58015	-774.19843	1252.84790	239.66954	-708.59686	780.78723	559.11554	-384.58649	727.66565	119.39661	-379.52188	981.64795	639.10559	-513.25439	1111.31604	223.33202	-637.48737	782.25812	362.15738	-262.18622	719.50543	486.10614	-242.94498	699.97906	371.42316	-246.41055	945.53705	562.11395	-675.61060	980.02325	447.69904	-703.35864	824.99384	897.68915	-225.47604	835.96930	783.92474	-231.31767	791.27161	747.29150	-223.51669	711.70190	881.53687	-213.89903	727.89630	766.07111	-232.87405	899.61700	939.34906	-594.56421	971.55255	822.27789	-613.43201	799.28094	884.37915	-623.43890	872.86993	770.52277	-631.87421	833.88812	1096.22742	-257.73166	641.14722	1120.92957	-340.01645	826.28003	1133.67688	-511.39160	640.80646	1126.90869	-419.80835	708.96100	1619.88977	-387.96198	758.86584	1588.61169	-220.30176	771.31720	1581.42700	-567.28827	845.28296	1543.04968	-383.22525	774.92094	1003.24284	-279.26396	768.78540	1036.39645	-513.21140	766.97681	1026.13046	-298.73687	766.25580	1038.78154	-467.56675
